<svg xmlns="http://www.w3.org/2000/svg" width="48.259" height="48.258" viewBox="0 0 48.259 48.258">
  <g id="Ball_logo" data-name="Ball logo" transform="translate(-128 -34.274)">
    <path id="Trazado_42" data-name="Trazado 42" d="M35.285,89.238l-7.02,2.273v3.114a20.279,20.279,0,0,0,16.5,4.65l-1.457-6.3Z" transform="translate(110.633 -20.83)" fill="#fff"/>
    <path id="Trazado_43" data-name="Trazado 43" d="M27.7,54.274l-6.281-7.579L16.1,49a40.174,40.174,0,0,0-.379,9.845l4.289,5.194,6.881-2.228Z" transform="translate(118.422 5.31)" fill="#fff"/>
    <path id="Trazado_44" data-name="Trazado 44" d="M35.364,23.32l-2.087,6.664,6.288,7.587L48.172,35.6l3.415-9.085-4.9-5.375A28.445,28.445,0,0,0,35.364,23.32" transform="translate(107.554 21.009)" fill="#fff"/>
    <path id="Trazado_45" data-name="Trazado 45" d="M10.435,51.421a20.385,20.385,0,0,0-.174,8.315l.47.472A40.03,40.03,0,0,1,11.2,51.8Z" transform="translate(121.908 2.406)" fill="#fff"/>
    <path id="Trazado_46" data-name="Trazado 46" d="M45.45,13.271l2.005-2.228a20.3,20.3,0,0,0-16.189,3.57l2.268.963a29.455,29.455,0,0,1,11.915-2.3" transform="translate(108.79 27.472)" fill="#fff"/>
    <path id="Trazado_47" data-name="Trazado 47" d="M76.787,81.863l-5.914,5.708,1.455,6.292a20.37,20.37,0,0,0,12.356-8.688l-1.122-4.3Z" transform="translate(84.454 -15.692)" fill="#fff"/>
    <path id="Trazado_48" data-name="Trazado 48" d="M24.13.71A24.129,24.129,0,1,0,48.259,24.839,24.13,24.13,0,0,0,24.13.71M42.557,36.316l-.023.047-.836,1.7-.091-.347A21.7,21.7,0,0,1,5.83,36.522L5.8,36.477A12.8,12.8,0,0,1,3.9,32.743a21.728,21.728,0,0,1-.854-13.121l-.019-.01.167-.568.028-.094a21.592,21.592,0,0,1,1.194-3.22,14.757,14.757,0,0,1,1.491-2.709l.084-.113a21.881,21.881,0,0,1,4.116-4.64l.065-.066.336-.337.057.024A21.682,21.682,0,0,1,33.037,5.035a8.456,8.456,0,0,1,1.326.648l.076.047A21.836,21.836,0,0,1,44.632,17.681l.022-.032.409,1.4c.063.215,1.532,5.308.495,9.317a21.581,21.581,0,0,1-3,7.954" transform="translate(128 33.564)" fill="#fff"/>
    <path id="Trazado_49" data-name="Trazado 49" d="M99.1,25.377v2.877a20.629,20.629,0,0,1,5.126,6.412l.279-.394a20.33,20.33,0,0,0-5.4-8.9" transform="translate(67.114 18.408)" fill="#fff"/>
    <path id="Trazado_50" data-name="Trazado 50" d="M83.535,35.594l-4.826.322-3.425,9.111,4.265,7.582,6.686-.974,2.48-9.233a19.247,19.247,0,0,0-5.18-6.807" transform="translate(81.744 12.13)" fill="#fff"/>
  </g>
</svg>
