<?xml version="1.0" encoding="UTF-8"?>
<svg id="b" data-name="Capa 2" xmlns="http://www.w3.org/2000/svg" width="474.51" height="126.58" viewBox="0 0 474.51 126.58">
  <defs>
    <style>
      .d {
        fill: #fff;
      }
    </style>
  </defs>
  <g id="c" data-name="Capa 1">
    <g>
      <g>
        <path class="d" d="M180.09,53.87h-15.54V.71h15.14c7.78,0,14.17,2.42,19.17,7.26,5,4.84,7.49,11.17,7.49,19.01,0,4.79-.92,9.16-2.76,13.13-1.84,3.97-4.8,7.26-8.87,9.86-4.08,2.6-8.95,3.9-14.63,3.9Zm-.39-48.66h-10.25V49.37h10.65c3.63,0,6.83-.63,9.62-1.89,2.79-1.26,4.99-2.97,6.62-5.13,1.63-2.16,2.85-4.52,3.67-7.1,.81-2.58,1.22-5.34,1.22-8.28,0-6.05-2.01-11.19-6.03-15.42-4.02-4.23-9.19-6.35-15.5-6.35Z"/>
        <path class="d" d="M229.38,53.87h-4.89V.71h4.89V53.87Z"/>
        <path class="d" d="M263.21,32.26h-8.04v21.61h-4.89V.71h11.99c6.2,0,10.84,1.41,13.92,4.22,3.08,2.81,4.61,6.8,4.61,11.95-.11,3.58-1.1,6.65-3,9.23-1.89,2.58-4.57,4.34-8.04,5.28l14.12,22.48h-5.84l-13.33-21.69c-.32,.05-.82,.08-1.5,.08Zm-.39-27.21h-7.65V27.92h8.6c3.89,0,6.89-1.08,8.99-3.23,2.1-2.16,3.15-4.84,3.15-8.04,0-7.73-4.37-11.59-13.09-11.59Z"/>
        <path class="d" d="M328.83,53.87h-28.79V.71h28.31V5.21h-23.42V25.08h20.66v4.5h-20.66v19.8h23.9v4.5Z"/>
        <path class="d" d="M384.36,51.11c-3.21,2.26-7.62,3.39-13.25,3.39-8.04,0-14.54-2.45-19.48-7.33-4.94-4.89-7.41-11.62-7.41-20.19,0-7.99,2.55-14.49,7.65-19.48,5.1-5,11.41-7.49,18.93-7.49,5.21,0,9.67,.95,13.41,2.84V7.97c-2.31-1.21-4.37-2.06-6.15-2.56-1.79-.5-4.26-.75-7.41-.75-6.1,0-11.19,2.06-15.26,6.19-4.08,4.13-6.11,9.5-6.11,16.13s2.01,12.49,6.03,16.64c4.02,4.15,9.37,6.23,16.05,6.23,5.21,0,9.54-1.37,13.01-4.1v5.36Z"/>
        <path class="d" d="M430.89,5.21h-14.75V53.87h-4.89V5.21h-14.67V.71h34.31V5.21Z"/>
        <path class="d" d="M194.44,125.87h-30.68v-53.16h9.94v44.33h20.74v8.83Z"/>
        <path class="d" d="M241.53,125.87h-31.71v-53.16h31.39v8.12h-21.37v14.43h19.01v8.04h-19.01v14.43h21.69v8.12Z"/>
        <path class="d" d="M266.45,125.87h-10.41l17.98-53.16h12.86l17.98,53.16h-10.73l-3.79-12.07h-20.11l-3.79,12.07Zm7.1-22.48l-.71,2.29h14.98l-.71-2.37c-1.79-5.68-3.25-10.45-4.38-14.31-1.13-3.87-1.83-6.3-2.09-7.3l-.32-1.58c-.47,2.63-2.73,10.38-6.78,23.27Z"/>
        <path class="d" d="M364.56,121.29c-4.84,3.47-10.88,5.21-18.14,5.21-8.41,0-15.21-2.45-20.39-7.33-5.18-4.89-7.77-11.54-7.77-19.95s2.67-14.83,8-19.88c5.34-5.05,12.08-7.57,20.23-7.57,6.05,0,11.23,1.13,15.54,3.39v10.17c-4.84-2.89-9.96-4.34-15.38-4.34s-9.6,1.66-12.86,4.97c-3.26,3.31-4.89,7.73-4.89,13.25s1.59,10.06,4.77,13.29c3.18,3.23,7.56,4.85,13.13,4.85,2.73,0,5.39-.47,7.97-1.42v-12.54h-9.78v-8.52h19.56v25.55h-.08l.08,.87Z"/>
        <path class="d" d="M424.19,105.44c0,6.89-1.85,12.13-5.56,15.74s-8.79,5.4-15.26,5.4-11.35-1.77-15.1-5.32c-3.76-3.55-5.64-8.64-5.64-15.26v-33.28h9.94v33.2c0,4.05,1,6.98,3,8.79,2,1.81,4.6,2.72,7.81,2.72,7.26,0,10.88-3.97,10.88-11.91v-32.81h9.94v32.73Z"/>
        <path class="d" d="M474.51,125.87h-31.71v-53.16h31.39v8.12h-21.37v14.43h19.01v8.04h-19.01v14.43h21.69v8.12Z"/>
      </g>
      <g>
        <path class="d" d="M46.47,89.24l-18.21,5.9v8.07c9.22,7.94,21.22,12.75,34.31,12.75,2.89,0,5.72-.24,8.48-.69l-3.78-16.34-20.81-9.69Z"/>
        <path class="d" d="M47,66.35l-16.29-19.66-13.79,5.98c-.52,2.88-1.98,12.51-.98,25.53l11.12,13.47,17.84-5.78,2.1-19.55Z"/>
        <path class="d" d="M38.69,26.79l-5.41,17.28,16.31,19.68,22.32-5.1,8.86-23.56-12.72-13.94c-15.22-.15-26.54,4.39-29.36,5.64Z"/>
        <path class="d" d="M11.26,51.42c-.88,3.82-1.35,7.79-1.35,11.87,0,3.31,.31,6.55,.9,9.7l1.22,1.23c-.45-10.83,.67-18.72,1.21-21.81l-1.98-.98Z"/>
        <path class="d" d="M68.05,17.49l5.2-5.78c-3.45-.71-7.02-1.09-10.67-1.09-11.72,0-22.55,3.85-31.31,10.35l5.88,2.5c3.08-1.39,14.84-6.14,30.9-5.98Z"/>
        <path class="d" d="M86.21,83.43l-15.34,14.8,3.77,16.32c13.35-3.14,24.75-11.38,32.05-22.53l-2.91-11.15-17.57,2.56Z"/>
        <path class="d" d="M62.58,.71C28.02,.71,0,28.73,0,63.29s28.02,62.58,62.58,62.58,62.58-28.02,62.58-62.58S97.14,.71,62.58,.71Zm47.79,92.35l-.06,.12-2.17,4.4-.23-.9c-10.27,13.9-26.76,22.93-45.33,22.93-19.91,0-37.44-10.39-47.46-26.02-.03-.04-.06-.08-.09-.11-2.34-3.09-3.89-6.57-4.91-9.68-2.49-6.36-3.86-13.27-3.86-20.5,0-4.66,.57-9.19,1.65-13.53l-.05-.02,.43-1.47s.03-.12,.07-.24c.81-2.88,1.85-5.67,3.1-8.35,1.09-2.47,2.4-5.04,3.87-7.03,.07-.1,.14-.19,.22-.29,2.97-4.5,6.57-8.56,10.68-12.03,.09-.09,.15-.15,.17-.17l.87-.87,.15,.06c9.64-7.73,21.88-12.37,35.17-12.37,8.23,0,16.05,1.77,23.1,4.96,1.17,.46,2.33,1.01,3.44,1.68,.07,.04,.13,.08,.2,.12,12.25,6.64,21.78,17.68,26.44,30.99l.06-.08,1.06,3.62c.16,.56,3.97,13.77,1.28,24.16-1.22,7.47-3.92,14.45-7.78,20.63Z"/>
        <path class="d" d="M99.1,25.38v7.46c2.2,1.8,8.81,7.68,13.29,16.63l.72-1.02c-2.61-8.89-7.51-16.8-14.02-23.07Z"/>
        <path class="d" d="M96.68,35.59l-12.52,.83-8.88,23.63,11.06,19.66,17.34-2.53,6.43-23.95c-4.14-9.59-11.45-16.03-13.43-17.65Z"/>
      </g>
    </g>
  </g>
</svg>