<svg xmlns="http://www.w3.org/2000/svg" width="50" height="50" viewBox="0 0 50 50">
  <g id="Step_3" data-name="Step 3" transform="translate(-1117 -1185)">
    <circle id="Elipse_3" data-name="Elipse 3" cx="25" cy="25" r="25" transform="translate(1117 1185)" fill="#78bc86"/>
    <path id="people" d="M24.144,21.315a1.576,1.576,0,0,0,1.61-1.61c0-1.61-1.61-6.438-8.048-6.438S9.658,18.1,9.658,19.706a1.576,1.576,0,0,0,1.61,1.61ZM11.3,19.706l-.035-.006a4.94,4.94,0,0,1,1.223-2.769,6.441,6.441,0,0,1,5.215-2.054,6.451,6.451,0,0,1,5.215,2.054A4.956,4.956,0,0,1,24.144,19.7l-.013,0-.023,0Zm6.4-9.658a3.219,3.219,0,1,0-3.219-3.219A3.219,3.219,0,0,0,17.706,10.048Zm4.829-3.219A4.829,4.829,0,1,1,17.706,2a4.829,4.829,0,0,1,4.829,4.829Zm-11.37,6.889a9.465,9.465,0,0,0-1.98-.4q-.567-.054-1.136-.053C1.61,13.267,0,18.1,0,19.706a1.422,1.422,0,0,0,1.61,1.61H8.4a3.6,3.6,0,0,1-.348-1.61A7.387,7.387,0,0,1,9.8,15.032,8.517,8.517,0,0,1,11.164,13.718ZM7.919,14.877a8.842,8.842,0,0,0-1.481,4.829H1.61a4.939,4.939,0,0,1,1.223-2.775,6.4,6.4,0,0,1,5.086-2.052Zm-5.5-7.243a4.829,4.829,0,1,1,4.829,4.829A4.829,4.829,0,0,1,2.414,7.634ZM7.243,4.414a3.219,3.219,0,1,0,3.219,3.219A3.219,3.219,0,0,0,7.243,4.414Z" transform="translate(1129.062 1198)" fill="#222f3b"/>
  </g>
</svg>
