<svg xmlns="http://www.w3.org/2000/svg" width="50" height="50" viewBox="0 0 50 50">
  <g id="Step_4" data-name="Step 4" transform="translate(-1482 -1185)">
    <circle id="Elipse_4" data-name="Elipse 4" cx="25" cy="25" r="25" transform="translate(1482 1185)" fill="#78bc86"/>
    <g id="emoji-smile" transform="translate(1494.449 1197)">
      <path id="Trazado_1" data-name="Trazado 1" d="M12.877,24.144A11.267,11.267,0,1,1,24.144,12.877,11.267,11.267,0,0,1,12.877,24.144Zm0,1.61A12.877,12.877,0,1,0,0,12.877,12.877,12.877,0,0,0,12.877,25.754Z" fill="#222f3b"/>
      <path id="Trazado_2" data-name="Trazado 2" d="M4.437,12.351a.8.8,0,0,1,1.1.295,5.636,5.636,0,0,0,9.761,0,.8.8,0,1,1,1.394.8,7.246,7.246,0,0,1-12.549,0,.8.8,0,0,1,.295-1.1Zm4.37-4.937c0,1.333-.721,2.414-1.61,2.414s-1.61-1.082-1.61-2.414S6.309,5,7.2,5,8.808,6.082,8.808,7.414Zm6.438,0c0,1.333-.721,2.414-1.61,2.414s-1.61-1.082-1.61-2.414S12.748,5,13.636,5,15.246,6.082,15.246,7.414Z" transform="translate(2.46 3.048)" fill="#222f3b"/>
    </g>
  </g>
</svg>
