<svg xmlns="http://www.w3.org/2000/svg" width="50" height="50" viewBox="0 0 50 50">
  <g id="Step_1" data-name="Step 1" transform="translate(-388 -1185)">
    <circle id="Elipse_1" data-name="Elipse 1" cx="25" cy="25" r="25" transform="translate(388 1185)" fill="#78bc86"/>
    <g id="person-plus" transform="translate(400.551 1200)">
      <path id="Trazado_3" data-name="Trazado 3" d="M9.658,11.658A4.829,4.829,0,1,0,4.829,6.829,4.829,4.829,0,0,0,9.658,11.658Zm3.219-4.829A3.219,3.219,0,1,1,9.658,3.61a3.219,3.219,0,0,1,3.219,3.219Zm6.438,12.877a1.576,1.576,0,0,1-1.61,1.61H1.61A1.576,1.576,0,0,1,0,19.706c0-1.61,1.61-6.438,9.658-6.438S19.315,18.1,19.315,19.706Zm-1.61-.006a4.3,4.3,0,0,0-1.339-2.678c-1.049-1.049-3.024-2.144-6.709-2.144S4,15.972,2.949,17.021A4.31,4.31,0,0,0,1.61,19.7Z" transform="translate(0 -2)" fill="#222f3b"/>
      <path id="Trazado_4" data-name="Trazado 4" d="M15.024,5a.8.8,0,0,1,.8.8V8.219h2.414a.8.8,0,1,1,0,1.61H15.829v2.414a.8.8,0,1,1-1.61,0V9.829H11.8a.8.8,0,0,1,0-1.61h2.414V5.8A.8.8,0,0,1,15.024,5Z" transform="translate(6.706 -0.171)" fill="#222f3b" fill-rule="evenodd"/>
    </g>
  </g>
</svg>
